#!OML:ASF H:\Terrain\Patient Classification 1\Walking\liu\liu.ASF
:FULLY-SPECIFIED
:DEGREES
16
root 8.17935 16.1795 -29.6348 4.19391 2.07229 -2.50074
lowerback -5.0831 0.632931 -0.789945
upperback -0.0431246 0.798795 3.25952
thorax 2.75003 0.367935 3.87092
lowerneck -21.8828 -6.24151 -14.3673
upperneck 20.128 -7.41882 13.8266
head 11.2517 -2.87372 6.30464
rclavicle -2.29596e-014 -3.89618e-014
rhumerus -35.3474 21.8254 -86.3366
rradius 36.1382
rwrist -17.8499
rhand -29.6416 -25.8179
rfingers 7.12502
rthumb -2.97131 -55.777
lclavicle -2.29596e-014 -3.89618e-014
lhumerus -45.7961 -7.46738 89.0527
lradius 29.5761
lwrist 9.93353
lhand -12.3593 -21.3895
lfingers 7.12502
lthumb 13.7108 8.13882
rfemur -13.6542 3.20066 29.8789
rtibia 27.6102
rfoot -19.2731 1.24659
rtoes -10.9104
lfemur -31.2701 13.4479 -17.1777
ltibia 62.8058
lfoot -12.3977 11.2596
ltoes 1.93872
17
root 8.1811 16.1733 -29.5338 4.2983 1.87096 -2.55052
lowerback -5.04044 0.760501 -0.635255
upperback -0.097908 0.962963 3.21525
thorax 2.66079 0.453873 3.74714
lowerneck -21.9161 -6.39109 -14.5085
upperneck 20.2017 -7.58538 13.8217
head 11.3196 -2.96007 6.30067
rclavicle 2.23136e-014 5.40694e-014
rhumerus -34.8935 21.8034 -86.1107
rradius 36.5189
rwrist -18.0541
rhand -29.845 -25.8294
rfingers 7.12502
rthumb -3.16779 -55.7856
lclavicle 2.23136e-014 5.40694e-014
lhumerus -46.0078 -7.26117 88.7514
lradius 29.6874
lwrist 9.8433
lhand -12.1625 -21.5889
lfingers 7.12502
lthumb 13.9004 7.92649
rfemur -13.306 3.2361 29.9629
rtibia 27.5143
rfoot -19.5407 1.35413
rtoes -11.2624
lfemur -32.2791 13.0775 -17.3825
ltibia 61.7016
lfoot -12.7328 11.7616
ltoes 7.16359
18
root 8.18171 16.1669 -29.4315 4.46269 1.59416 -2.66115
lowerback -5.02411 0.987327 -0.338286
upperback -0.224904 1.25425 3.12222
thorax 2.50869 0.606314 3.50015
lowerneck -21.5396 -6.49637 -14.7833
upperneck 20.0614 -7.74552 14.0613
head 11.2478 -3.04055 6.40895
rclavicle -1.29459e-014 -4.13472e-014
rhumerus -34.5959 21.4852 -85.9276
rradius 36.945
rwrist -18.1167
rhand -29.9591 -25.2092
rfingers 7.12502
rthumb -3.27797 -55.1637
lclavicle -1.29459e-014 -4.13472e-014
lhumerus -46.3007 -7.29442 88.5014
lradius 29.6944
lwrist 9.71969
lhand -11.5931 -21.4513
lfingers 7.12502
lthumb 14.4491 8.02565
rfemur -13.0034 3.22722 30.1341
rtibia 27.3913
rfoot -19.8156 1.34484
rtoes -12.3773
lfemur -33.2879 12.8762 -17.5129
ltibia 60.5266
lfoot -13.3115 12.1864
ltoes -1.97069
19
root 8.18482 16.1614 -29.3288 4.49545 1.31323 -2.85461
lowerback -5.02385 1.19628 -0.00209309
upperback -0.198902 1.51329 3.11289
thorax 2.52801 0.739109 3.31898
lowerneck -21.2204 -6.57204 -15.1458
upperneck 19.756 -7.81746 14.3328
head 11.1173 -3.0822 6.55346
rclavicle 1.3418e-015 1.59028e-015
rhumerus -34.0394 21.2547 -85.5866
rradius 37.3058
rwrist -18.1638
rhand -29.775 -24.6265
rfingers 7.12502
rthumb -3.10014 -54.5837
lclavicle 1.3418e-015 1.59028e-015
lhumerus -46.3572 -7.3157 88.3863
lradius 29.6701
lwrist 9.65024
lhand -11.0603 -21.0496
lfingers 7.12502
lthumb 14.9624 8.38989
rfemur -12.5236 3.12985 30.3911
rtibia 27.2189
rfoot -19.9566 1.42332
rtoes -13.4112
lfemur -34.1293 12.7851 -17.5393
ltibia 59.2728
lfoot -14.193 12.0942
ltoes -7.91224
20
root 8.18808 16.1472 -29.227 4.52897 1.17912 -3.02699
lowerback -5.04412 1.23921 0.153532
upperback -0.124327 1.55744 3.17725
thorax 2.61619 0.761318 3.30323
lowerneck -21.2651 -6.57622 -15.1948
upperneck 19.6479 -7.77806 14.2934
head 11.0791 -3.07053 6.54835
rclavicle 8.97016e-015 1.19271e-014
rhumerus -33.303 21.3759 -85.276
rradius 37.5517
rwrist -18.2758
rhand -29.6895 -24.2755
rfingers 7.12502
rthumb -3.01763 -54.2339
lclavicle 8.97016e-015 1.19271e-014
lhumerus -46.3621 -6.90857 88.1289
lradius 29.7689
lwrist 9.43785
lhand -11.2008 -21.9704
lfingers 7.12502
lthumb 14.827 7.47915
rfemur -12.0157 3.31654 30.6225
rtibia 26.9665
rfoot -20.1628 1.38199
rtoes -13.3191
lfemur -34.9888 12.5438 -17.5596
ltibia 57.9285
lfoot -14.6858 12.0757
ltoes -9.8134
21
root 8.18985 16.1431 -29.1223 4.6736 1.07306 -3.04188
lowerback -5.13822 1.22785 0.16469
upperback -0.129302 1.53987 3.17448
thorax 2.66519 0.752268 3.29551
lowerneck -21.381 -6.50111 -14.9358
upperneck 19.7177 -7.69189 14.0797
head 11.0891 -3.03096 6.43733
rclavicle 7.45443e-015 1.43125e-014
rhumerus -32.7391 21.5453 -85.0873
rradius 37.9402
rwrist -18.3404
rhand -29.7067 -24.8293
rfingers 7.12502
rthumb -3.03421 -54.7874
lclavicle 7.45443e-015 1.43125e-014
lhumerus -46.5455 -6.40883 87.801
lradius 29.8582
lwrist 9.34925
lhand -11.4895 -22.8173
lfingers 7.12502
lthumb 14.5489 6.6525
rfemur -11.5947 3.62234 30.6588
rtibia 26.6306
rfoot -20.4391 1.2626
rtoes -12.7855
lfemur -35.8402 12.1383 -17.731
ltibia 56.4498
lfoot -14.9 12.1271
ltoes -7.25106
22
root 8.18875 16.1636 -29.0154 4.77252 0.867316 -2.83364
lowerback -5.16339 1.28601 -0.0300549
upperback -0.114571 1.62976 3.11607
thorax 2.68574 0.794707 3.35218
lowerneck -21.6949 -6.61282 -14.7644
upperneck 19.9037 -7.79425 13.7454
head 11.2098 -3.09083 6.26491
rclavicle 3.72721e-015 1.66979e-014
rhumerus -32.1976 21.5469 -84.8215
rradius 38.3673
rwrist -18.3985
rhand -29.8926 -26.1473
rfingers 7.12502
rthumb -3.21369 -56.1028
lclavicle 3.72721e-015 1.66979e-014
lhumerus -46.4834 -5.87859 87.516
lradius 29.5581
lwrist 9.13461
lhand -11.5392 -22.7955
lfingers 7.12502
lthumb 14.5011 6.67774
rfemur -11.0585 3.70943 30.4416
rtibia 26.1988
rfoot -20.6167 1.22333
rtoes -12.6696
lfemur -36.4838 11.7095 -18.1108
ltibia 54.7992
lfoot -14.7559 12.2825
ltoes -5.65016
23
root 8.18548 16.1779 -28.9084 4.86983 0.502999 -2.73853
lowerback -5.16113 1.40463 -0.238551
upperback -0.0898566 1.7997 3.12555
thorax 2.69344 0.876602 3.49226
lowerneck -21.8621 -6.77714 -14.9581
upperneck 19.8938 -7.92395 13.6988
head 11.2662 -3.16416 6.25541
rclavicle -1.54804e-014 -1.03368e-014
rhumerus -31.6641 21.6294 -84.5703
rradius 38.7936
rwrist -18.6088
rhand -29.9621 -27.1897
rfingers 7.12502
rthumb -3.28087 -57.1442
lclavicle -1.54804e-014 -1.03368e-014
lhumerus -46.2235 -5.10747 87.1321
lradius 29.095
lwrist 8.56571
lhand -11.5319 -22.7894
lfingers 7.12502
lthumb 14.5081 6.68338
rfemur -10.4584 3.82171 30.3441
rtibia 25.6683
rfoot -20.5972 1.31488
rtoes -12.1027
lfemur -37.06 11.5479 -18.3482
ltibia 53.0231
lfoot -14.4769 12.4528
ltoes -6.08206
24
root 8.18674 16.1677 -28.8017 5.02171 0.257507 -3.05451
lowerback -5.11689 1.45955 -0.0297752
upperback -0.177902 1.86067 3.23546
thorax 2.57711 0.910967 3.48939
lowerneck -21.8676 -6.70581 -15.145
upperneck 19.8925 -7.80392 13.8765
head 11.264 -3.10423 6.37928
rclavicle 6.60959e-015 -3.18055e-015
rhumerus -31.4298 21.9738 -84.4987
rradius 39.358
rwrist -18.9933
rhand -29.9368 -27.094
rfingers 7.12502
rthumb -3.2564 -57.0489
lclavicle 6.60959e-015 -3.18055e-015
lhumerus -46.4754 -4.56742 86.8594
lradius 29.1083
lwrist 8.22192
lhand -11.7243 -22.6119
lfingers 7.12502
lthumb 14.3226 6.87412
rfemur -9.89775 3.92506 30.7062
rtibia 25.095
rfoot -20.4755 1.35605
rtoes -10.9211
lfemur -37.7155 11.4438 -18.1746
ltibia 51.1673
lfoot -14.3093 12.5517
ltoes -6.44274
25
root 8.19305 16.1595 -28.6979 5.08565 0.402169 -3.35163
lowerback -5.06147 1.41986 0.311739
upperback -0.179674 1.78749 3.28774
thorax 2.55743 0.878336 3.34414
lowerneck -22.1827 -6.57126 -14.7319
upperneck 20.0764 -7.64936 13.5881
head 11.3321 -3.0238 6.2291
rclavicle 7.70291e-016 -1.43125e-014
rhumerus -31.0575 22.1612 -84.391
rradius 39.8556
rwrist -19.3726
rhand -30.1648 -26.3514
rfingers 7.12502
rthumb -3.47658 -56.3028
lclavicle 7.70291e-016 -1.43125e-014
lhumerus -46.5809 -4.34123 86.7077
lradius 29.1314
lwrist 8.11914
lhand -11.9735 -22.2115
lfingers 7.12502
lthumb 14.0826 7.29136
rfemur -9.25246 3.73818 31.0724
rtibia 24.4865
rfoot -20.4404 1.30223
rtoes -10.369
lfemur -38.32 10.9142 -17.9917
ltibia 49.2766
lfoot -13.8437 12.5473
ltoes -7.04932
26
root 8.19603 16.1687 -28.5914 5.04067 0.454712 -3.1756
lowerback -5.09275 1.44072 0.135713
upperback -0.0233169 1.82178 3.24306
thorax 2.73034 0.890897 3.40411
lowerneck -22.1931 -6.52312 -14.6039
upperneck 19.844 -7.5763 13.5004
head 11.2252 -2.98928 6.17594
rclavicle 1.97791e-014 1.74931e-014
rhumerus -30.4576 22.0758 -84.0861
rradius 40.2808
rwrist -19.6607
rhand -30.6051 -26.6598
rfingers 7.12502
rthumb -3.90175 -56.6038
lclavicle 1.97791e-014 1.74931e-014
lhumerus -46.0834 -3.68051 86.3671
lradius 28.5589
lwrist 7.5112
lhand -11.8648 -22.0105
lfingers 7.12502
lthumb 14.1873 7.48502
rfemur -8.46785 3.54341 30.8962
rtibia 23.8346
rfoot -20.2489 1.60934
rtoes -9.51463
lfemur -38.6038 10.3208 -18.2385
ltibia 47.3126
lfoot -13.9178 12.1787
ltoes -7.60561
27
root 8.19547 16.1815 -28.4824 5.06734 0.245742 -3.18489
lowerback -5.13782 1.57115 0.127542
upperback 0.0375872 1.99377 3.24195
thorax 2.8084 0.975443 3.42297
lowerneck -21.9407 -6.62887 -15.1219
upperneck 19.5403 -7.6843 13.9923
head 11.1318 -3.03072 6.42726
rclavicle 1.54058e-014 7.95139e-016
rhumerus -30.0817 21.906 -83.8413
rradius 40.6737
rwrist -19.811
rhand -31.2639 -28.1874
rfingers 7.12502
rthumb -4.53801 -58.1187
lclavicle 1.54058e-014 7.95139e-016
lhumerus -45.7993 -3.07088 86.0454
lradius 27.9965
lwrist 6.8454
lhand -11.918 -21.7285
lfingers 7.12502
lthumb 14.136 7.77058
rfemur -7.76412 3.50651 30.9034
rtibia 23.2177
rfoot -19.8568 1.90324
rtoes -8.33985
lfemur -38.8565 10.0143 -18.2666
ltibia 45.2863
lfoot -14.3673 11.6847
ltoes -8.11425
28
root 8.19532 16.1908 -28.3764 5.16636 0.036878 -3.41603
lowerback -5.07487 1.70677 0.442096
upperback -0.0451202 2.16175 3.16152
thorax 2.69273 1.06537 3.16978
lowerneck -21.8713 -6.71304 -15.1438
upperneck 19.5761 -7.87034 14.215
head 11.1773 -3.09441 6.48754
rclavicle 3.72721e-015 8.74653e-015
rhumerus -30.0009 21.6579 -83.9258
rradius 41.1496
rwrist -19.8486
rhand -31.507 -28.9731
rfingers 7.12502
rthumb -4.77271 -58.8994
lclavicle 3.72721e-015 8.74653e-015
lhumerus -45.8694 -3.05035 85.7739
lradius 27.772
lwrist 6.59089
lhand -12.5303 -21.3139
lfingers 7.12502
lthumb 13.546 8.22552
rfemur -7.11692 3.47445 31.1626
rtibia 22.5492
rfoot -19.5636 1.94943
rtoes -7.53465
lfemur -39.2206 9.85394 -18.0976
ltibia 43.2197
lfoot -13.977 11.3695
ltoes -9.71221
29
root 8.19941 16.1903 -28.2677 5.23444 -0.116967 -3.34219
lowerback -5.03158 1.78138 0.382282
upperback -0.0961876 2.26951 3.07708
thorax 2.61132 1.1198 3.12033
lowerneck -21.7555 -6.6627 -15.0412
upperneck 19.5418 -7.84184 14.1941
head 11.132 -3.08001 6.46549
rclavicle 1.7344e-014 -3.18055e-015
rhumerus -29.9239 21.4796 -83.9224
rradius 41.7075
rwrist -19.8763
rhand -31.3386 -28.3039
rfingers 7.12502
rthumb -4.61005 -58.2337
lclavicle 1.7344e-014 -3.18055e-015
lhumerus -45.953 -2.92435 85.6562
lradius 27.6497
lwrist 6.4234
lhand -13.4012 -20.9897
lfingers 7.12502
lthumb 12.7064 8.6037
rfemur -6.42265 3.58286 31.0945
rtibia 21.8275
rfoot -19.5444 1.88561
rtoes -7.55383
lfemur -39.4909 9.6853 -18.3074
ltibia 41.0914
lfoot -13.2091 11.067
ltoes -12.317
30
root 8.20663 16.1796 -28.1531 5.27515 -0.317698 -3.51596
lowerback -5.08939 1.84516 0.475287
upperback -0.0959233 2.34415 3.21469
thorax 2.63834 1.15728 3.21827
lowerneck -21.6472 -6.6017 -15.2575
upperneck 19.5158 -7.68926 14.1756
head 11.0838 -3.03351 6.52167
rclavicle -1.82136e-014 1.03368e-014
rhumerus -29.688 21.4772 -83.6881
rradius 42.0885
rwrist -19.9064
rhand -31.9495 -29.5867
rfingers 7.12502
rthumb -5.19993 -59.5029
lclavicle -1.82136e-014 1.03368e-014
lhumerus -46.0785 -2.55026 85.7664
lradius 27.5678
lwrist 6.39703
lhand -13.4428 -20.6805
lfingers 7.12502
lthumb 12.6663 8.91538
rfemur -5.74465 3.8207 31.2874
rtibia 21.2066
rfoot -19.5857 1.93019
rtoes -7.79457
lfemur -39.6485 9.46554 -18.156
ltibia 38.8983
lfoot -12.8865 10.4763
ltoes -12.5866
